<?xml version="1.0" standalone="no"?>
<!DOCTYPE svg PUBLIC "-//W3C//DTD SVG 20010904//EN"
 "http://www.w3.org/TR/2001/REC-SVG-20010904/DTD/svg10.dtd">
<svg version="1.0" xmlns="http://www.w3.org/2000/svg"
 width="1000.000000pt" height="1000.000000pt" viewBox="0 0 1000.000000 1000.000000"
 preserveAspectRatio="xMidYMid meet">
<metadata>
Created by potrace 1.11, written by Peter Selinger 2001-2013
</metadata>
<g transform="translate(0.000000,1000.000000) scale(0.100000,-0.100000)"
fill="#000000" stroke="none">
<path d="M1942 9100 c-205 -54 -363 -214 -416 -420 -18 -69 -15 -205 8 -330
24 -136 25 -142 31 -170 3 -14 14 -77 25 -140 11 -63 22 -125 25 -138 2 -13
14 -78 25 -145 11 -67 23 -132 25 -145 5 -27 24 -129 29 -157 3 -18 12 -72 22
-135 3 -14 9 -47 14 -75 5 -27 12 -68 16 -90 3 -22 7 -47 10 -56 2 -9 7 -32 9
-50 3 -19 12 -72 20 -119 22 -120 54 -298 90 -507 9 -49 22 -124 30 -168 17
-93 20 -110 40 -230 9 -49 22 -124 30 -165 8 -41 16 -91 19 -111 3 -20 8 -42
10 -50 3 -8 8 -32 10 -54 3 -22 12 -78 20 -125 9 -47 18 -96 20 -110 13 -70
86 -490 91 -520 3 -19 8 -46 10 -60 11 -55 16 -79 31 -165 23 -134 21 -127 54
-310 17 -93 42 -235 56 -315 14 -80 41 -233 60 -340 19 -107 37 -204 38 -215
2 -11 6 -33 9 -50 4 -16 9 -46 12 -65 3 -19 10 -61 15 -92 6 -32 12 -70 15
-85 2 -15 9 -49 14 -77 6 -28 12 -64 15 -81 8 -52 36 -209 41 -235 2 -14 7
-36 10 -50 2 -14 7 -38 9 -55 7 -42 35 -205 41 -235 3 -13 16 -90 30 -170 14
-80 27 -156 29 -170 3 -14 19 -104 36 -200 17 -96 35 -197 40 -225 19 -110 38
-217 45 -255 3 -13 7 -42 11 -65 29 -202 79 -318 179 -419 108 -108 244 -167
393 -169 209 -2 287 38 602 310 14 12 117 99 230 193 113 94 214 179 225 188
11 10 61 51 110 92 50 41 95 79 101 85 12 11 58 49 174 146 41 34 98 81 125
104 28 24 183 154 345 290 162 135 304 254 315 263 11 10 130 110 265 222 307
257 291 243 304 255 6 6 106 89 221 185 116 96 221 184 235 197 25 22 189 160
284 238 27 22 54 45 60 50 6 6 52 44 101 85 50 41 92 77 95 80 3 3 30 25 60
50 30 25 60 49 66 55 6 5 32 28 59 50 27 22 148 123 269 225 122 102 289 241
371 310 83 68 152 127 155 130 3 3 129 109 280 235 151 126 291 242 311 259
41 37 78 67 304 256 94 79 208 175 255 214 145 121 192 183 236 307 71 200 24
420 -122 578 -94 101 -125 116 -533 263 -29 10 -277 100 -550 200 -273 99
-543 197 -601 218 -58 21 -123 45 -145 53 -38 15 -347 127 -465 169 -30 11
-1045 380 -2255 820 -1210 439 -2256 820 -2325 844 -69 25 -147 54 -175 65
-135 51 -262 61 -383 29z m2838 -1711 c107 -39 198 -76 202 -82 4 -7 8 -267 8
-579 l0 -568 43 33 c57 43 168 100 247 126 338 110 766 29 986 -186 91 -89
179 -257 199 -378 10 -59 17 -100 21 -119 10 -47 5 -1459 -5 -1469 -7 -7 -84
-11 -207 -11 -156 -1 -198 2 -207 13 -9 10 -12 193 -13 695 -1 598 -3 690 -18
751 -52 219 -188 320 -431 319 -153 0 -262 -29 -368 -98 -113 -73 -189 -178
-222 -306 -5 -19 -16 -92 -20 -125 -2 -22 -4 -305 -5 -630 0 -324 -5 -596 -9
-604 -7 -11 -50 -13 -209 -14 -110 0 -205 3 -211 7 -8 5 -11 440 -11 1636 0
895 3 1635 6 1644 3 9 11 16 18 16 6 0 99 -32 206 -71z m-883 -74 c98 -44 164
-142 171 -252 15 -226 -216 -384 -423 -289 -113 52 -180 162 -173 286 12 214
229 344 425 255z m84 -1076 c11 -17 6 -2630 -5 -2679 -5 -19 -9 -39 -10 -45
-48 -217 -176 -359 -371 -410 -68 -18 -283 -27 -332 -14 -27 8 -33 16 -42 57
-7 26 -14 61 -16 77 -5 42 -15 93 -25 140 -14 62 -12 102 6 109 9 3 20 4 24 1
5 -3 49 -6 99 -7 119 -1 173 23 211 97 l25 49 3 1314 c2 1285 3 1313 22 1320
10 4 105 7 210 6 154 -1 194 -3 201 -15z"/>
</g>
</svg>
