<!-- Generator: Adobe Illustrator 19.2.0, SVG Export Plug-In  -->
<svg version="1.1"
	 xmlns="http://www.w3.org/2000/svg" xmlns:xlink="http://www.w3.org/1999/xlink" xmlns:a="http://ns.adobe.com/AdobeSVGViewerExtensions/3.0/"
	 x="0px" y="0px" width="49.3px" height="48px" viewBox="0 0 49.3 48" style="enable-background:new 0 0 49.3 48;"
	 xml:space="preserve">
<defs>
</defs>
<g>
	<path d="M24.6,0C11,0,0,11,0,24.6C0,35.5,7.1,44.7,16.8,48c1.2,0.2,1.7-0.5,1.7-1.2c0-0.6,0-2.5,0-4.6c-6.9,1.5-8.3-2.9-8.3-2.9
		c-1.1-2.8-2.7-3.6-2.7-3.6c-2.2-1.5,0.2-1.5,0.2-1.5c2.5,0.2,3.8,2.5,3.8,2.5c2.2,3.8,5.8,2.7,7.2,2c0.2-1.6,0.9-2.7,1.6-3.3
		c-5.5-0.6-11.2-2.7-11.2-12.2c0-2.7,1-4.9,2.5-6.6c-0.3-0.6-1.1-3.1,0.2-6.5c0,0,2.1-0.7,6.8,2.5c2-0.5,4.1-0.8,6.2-0.8
		c2.1,0,4.2,0.3,6.2,0.8c4.7-3.2,6.8-2.5,6.8-2.5c1.3,3.4,0.5,5.9,0.2,6.5c1.6,1.7,2.5,3.9,2.5,6.6c0,9.5-5.8,11.5-11.2,12.2
		c0.9,0.8,1.7,2.3,1.7,4.6c0,3.3,0,5.9,0,6.8c0,0.7,0.4,1.4,1.7,1.2c9.8-3.3,16.8-12.5,16.8-23.4C49.3,11,38.2,0,24.6,0z"/>
	<path d="M9.3,35.4c-0.1,0.1-0.2,0.2-0.4,0.1c-0.2-0.1-0.3-0.2-0.2-0.4c0.1-0.1,0.2-0.2,0.4-0.1C9.3,35.1,9.4,35.2,9.3,35.4
		L9.3,35.4z"/>
	<path d="M10.3,36.5c-0.1,0.1-0.3,0.1-0.5-0.1c-0.2-0.2-0.2-0.4-0.1-0.5c0.1-0.1,0.3-0.1,0.5,0.1C10.4,36.1,10.4,36.4,10.3,36.5
		L10.3,36.5z"/>
	<path d="M11.3,37.9c-0.2,0.1-0.4,0-0.6-0.2c-0.2-0.2-0.2-0.5,0-0.6c0.2-0.1,0.4,0,0.6,0.2C11.5,37.5,11.5,37.8,11.3,37.9L11.3,37.9
		z"/>
	<path d="M12.6,39.3c-0.1,0.1-0.4,0.1-0.6-0.1c-0.2-0.2-0.3-0.5-0.1-0.6c0.1-0.1,0.4-0.1,0.6,0.1C12.7,38.8,12.8,39.1,12.6,39.3
		L12.6,39.3z"/>
	<path d="M14.5,40.1c-0.1,0.2-0.3,0.3-0.6,0.2c-0.3-0.1-0.5-0.3-0.4-0.5c0.1-0.2,0.3-0.3,0.6-0.2C14.3,39.6,14.5,39.9,14.5,40.1
		L14.5,40.1z"/>
	<path d="M16.5,40.2c0,0.2-0.2,0.4-0.5,0.4c-0.3,0-0.5-0.2-0.5-0.4c0-0.2,0.2-0.4,0.5-0.4C16.2,39.8,16.5,40,16.5,40.2L16.5,40.2z"
		/>
	<path d="M18.4,39.9c0,0.2-0.2,0.4-0.5,0.5c-0.3,0.1-0.6-0.1-0.6-0.3c0-0.2,0.2-0.4,0.5-0.5C18.1,39.6,18.3,39.7,18.4,39.9
		L18.4,39.9z"/>
</g>
</svg>
