<!-- Generator: Adobe Illustrator 21.1.0, SVG Export Plug-In  -->
<svg version="1.1"
	 xmlns="http://www.w3.org/2000/svg" xmlns:xlink="http://www.w3.org/1999/xlink" xmlns:a="http://ns.adobe.com/AdobeSVGViewerExtensions/3.0/"
	 x="0px" y="0px" width="960.9px" height="1000.6px" viewBox="0 0 960.9 1000.6" style="enable-background:new 0 0 960.9 1000.6;"
	 xml:space="preserve">
<defs>
</defs>
<path d="M954.5,339.4c-7.7-16.5-21.1-28.5-36.8-34.8L94.2,4.7L91,3.6C84,1.2,76.7,0,69.1,0c-4,0-8,0.4-12,1.1
	C19.5,7.7-5.6,43.6,1.1,81.2L153,943.4c3.1,17.4,12.8,33.7,28.4,44.7c12,8.4,25.9,12.5,39.5,12.5c16.2,0,32.2-5.7,44.9-16.4l0.1-0.1
	l0.2-0.2L934.6,423l0.5-0.4l2.8-2.4C960.1,400.3,967.6,367.8,954.5,339.4z M297,643.7c0,54-23.3,81-70,81c-8,0-12.4-0.2-16.8-0.8
	c-2.5-0.4-4.5-2.4-5-4.9l-6.7-37.3c-0.4-2.5,1.8-4.6,4.3-4.3c5,0.7,9.9,1.1,14.8,1.1c9.3,0,16.1-2.3,20.3-7
	c4.3-4.7,6.5-12.4,6.5-23.3V347.7c0-2.1,1.7-3.7,3.8-3.7h45.1c2.1,0,3.7,1.7,3.7,3.7L297,643.7L297,643.7z M270.8,285.3
	c-20,0-36.2-16.2-36.2-36.2s16.2-36.2,36.2-36.2s36.2,16.2,36.2,36.2S290.8,285.3,270.8,285.3z M597,591.9c0,2.1-1.6,3.8-3.7,3.8
	h-45.1c-2.1,0-3.8-1.7-3.8-3.8V441.6c0-39.7-18-59.6-54.1-59.6h-0.5c-22.5,0-45,8.5-58,25.2c-13.1,16.7-15,31-15,68.1v116.5
	c0,2.1-1.7,3.8-3.8,3.8h-45.1c-2.1,0-3.8-1.7-3.8-3.8V202.9c0-2.6,2.6-4.4,5-3.5l45.2,16.4c1.5,0.5,2.5,1.9,2.5,3.5v135.8
	c0,0,4.1-3.2,4.8-3.6c1.7-1.2,3.4-2.4,5.1-3.5c3.5-2.2,7.1-4.2,10.8-6.1c7.4-3.6,15.1-6.4,23.1-8.4c16.1-4,33-4.6,49.4-2.1
	c17.9,2.7,35.2,8.5,50.5,19.1c13.4,9.2,23,23,28.8,38.1c5.8,15.2,7.8,31.7,7.8,47.9L597,591.9L597,591.9z"/>
</svg>
